HIERARCHY
ROOT Root
{
	OFFSET 0.00000 0.00000 0.00000
	CHANNELS 6 Xposition Yposition Zposition Zrotation Xrotation Yrotation
	JOINT Hips
	{
		OFFSET 0 0 0	
		CHANNELS 3 Zrotation Xrotation Yrotation
		JOINT Spine
		{
			OFFSET 0 4 0	
			CHANNELS 3 Zrotation Xrotation Yrotation
			JOINT Spine1
			{
				OFFSET 0 19.4 0	
				CHANNELS 3 Zrotation Xrotation Yrotation
				JOINT Spine2
				{
					OFFSET 0 16.6 0	
					CHANNELS 3 Zrotation Xrotation Yrotation
					JOINT LeftCollar
					{
						OFFSET 0 10 0	
						CHANNELS 3 Zrotation Xrotation Yrotation
						JOINT LeftArm
						{
							OFFSET 15.6 -2 3	
							CHANNELS 3 Zrotation Xrotation Yrotation
							JOINT LeftForeArm
							{
								OFFSET 3.5 -27 -1	
								CHANNELS 3 Zrotation Xrotation Yrotation
								JOINT LeftHand
								{
									OFFSET 1 -27 1	
									CHANNELS 3 Zrotation Xrotation Yrotation
									End Site
									{
										OFFSET 0 -15 0
									}
								}
							}
						}
					}
					JOINT RightCollar
					{
						OFFSET 0 10 0	
						CHANNELS 3 Zrotation Xrotation Yrotation
						JOINT RightArm
						{
							OFFSET -15.6 -2 3	
							CHANNELS 3 Zrotation Xrotation Yrotation
							JOINT RightForeArm
							{
								OFFSET -3.5 -27 -1	
								CHANNELS 3 Zrotation Xrotation Yrotation
								JOINT RightHand
								{
									OFFSET -1 -27 1	
									CHANNELS 3 Zrotation Xrotation Yrotation
									End Site
									{
										OFFSET 0 -15 0
									}
								}
							}
						}
					}
					JOINT Neck
					{
						OFFSET 0 10 0	
						CHANNELS 3 Zrotation Xrotation Yrotation
						JOINT Head
						{
							OFFSET 0 12.7 3	
							CHANNELS 3 Zrotation Xrotation Yrotation
							End Site
							{
								OFFSET 0 12.7 3
							}
						}
					}
				}
			}
		}
	}
	JOINT LeftHip
	{
		OFFSET 0 0 0	
		CHANNELS 3 Zrotation Xrotation Yrotation
		JOINT LeftUpLeg
		{
			OFFSET 8.8 -6 0	
			CHANNELS 3 Zrotation Xrotation Yrotation
			JOINT LeftLeg
			{
				OFFSET 0 -39 2	
				CHANNELS 3 Zrotation Xrotation Yrotation
				JOINT LeftFoot
				{
					OFFSET 0 -43 -2	
					CHANNELS 3 Zrotation Xrotation Yrotation
					JOINT LeftFootFront
					{
						OFFSET 0 -7 8.5	
						CHANNELS 3 Zrotation Xrotation Yrotation
						End Site
						{
							OFFSET 0 -0.5 9
						}
					}
				}
				JOINT LeftHeel
				{
					OFFSET 0 -43 -2	
					CHANNELS 3 Zrotation Xrotation Yrotation
					End Site
					{
						OFFSET 0 -7.5 -5
					}
				}
			}
		}
	}
	JOINT RightHip
	{
		OFFSET 0 0 0	
		CHANNELS 3 Zrotation Xrotation Yrotation
		JOINT RightUpLeg
		{
			OFFSET -8.8 -6 0	
			CHANNELS 3 Zrotation Xrotation Yrotation
			JOINT RightLeg
			{
				OFFSET 0 -39 2	
				CHANNELS 3 Zrotation Xrotation Yrotation
				JOINT RightFoot
				{
					OFFSET 0 -43 -2	
					CHANNELS 3 Zrotation Xrotation Yrotation
					JOINT RightFootFront
					{
						OFFSET 0 -7 8.5	
						CHANNELS 3 Zrotation Xrotation Yrotation
						End Site
						{
							OFFSET 0 -0.5 9
						}
					}
				}
				JOINT RightHeel
				{
					OFFSET 0 -43 -2	
					CHANNELS 3 Zrotation Xrotation Yrotation
					End Site
					{
						OFFSET 0 -7.5 -5
					}
				}
			}
		}
	}
}
MOTION
Frames: 19
Frame Time: 0.05
602.86 95.019 503.55 -0 0 -0 -0.11687 1.5154 -18.864 2.2361 -1.0232 1.007 2.2361 -1.0232 1.007 1.8771 -0.86212 0.8432 -0 0 -0 2.7518 -8.5217 3.5327 -64.67 -23.672 -40.163 0.66365 -64.592 -42.429 -0 0 -0 -21.227 -18.845 -60.329 63.146 -63.821 30.444 20.688 -23.069 13.703 -1.524 4.8562 -21.719 0.28351 3.9714 -20.897 -0.11687 1.5154 -18.864 13.508 -5.3365 17.766 6.5174 16.021 -11.118 -0 0 -0 0 0 -1.0672e-07 -0 0 -0 -0.11687 1.5154 -18.864 12.214 3.0834 0.51006 -10.929 -9.9999 18.562 -0 0 -0 -0 0 1.334e-08 -0 0 -0 
603.08 95.1 503.59 -0 0 -0 0.81766 2.0907 -16.107 2.215 -1.3182 0.44313 2.215 -1.3182 0.44313 1.8599 -1.1084 0.3688 -0 0 -0 2.121 -9.1055 5.0369 -67.587 -26.149 -44.79 2.3357 -67.751 -44.028 -0 0 -0 -21.494 -17.878 -58.15 77.697 -68.687 60.107 21.806 -29.732 14.212 -1.6269 5.0573 -20.865 0.20287 3.9388 -20.527 0.81766 2.0907 -16.107 13.341 -5.5004 21.233 4.4058 15.03 -8.0712 -0 0 -0 -0 0 -0 -0 0 -0 0.81766 2.0907 -16.107 11.231 1.9855 -1.1855 -11.059 -10.18 18.587 -0 0 -0 -0 0 1.334e-08 -0 0 -0 
603.33 95.145 503.68 -0 0 -0 0.90095 2.2523 -13.545 2.6244 -1.4715 0.071532 2.6244 -1.4715 0.071532 2.2043 -1.2363 0.055554 -0 0 -0 0.054345 -10.212 6.0263 -70.436 -29.773 -47.546 3.9852 -68.665 -43.48 -0 0 -0 -23.478 -18.078 -58.095 96.384 -67.482 88.528 16.301 -40.67 9.4687 -1.8613 5.4292 -20.281 0.34112 4.1917 -20.266 0.90095 2.2523 -13.545 12.544 -4.5925 22.823 4.2258 13.188 -6.5883 -0 0 -0 -0 0 2.1344e-07 -0 0 -0 0.90095 2.2523 -13.545 10.921 1.6423 -2.6233 -11.191 -10.299 19.042 -0 0 -0 -0 0 7.3371e-08 -0 0 -0 
603.65 95.151 503.84 -0 0 -0 0.22647 1.9728 -11.408 3.3426 -1.5116 0.032058 3.3426 -1.5116 0.032057 2.8076 -1.2699 0.020999 -0 0 -0 -2.7806 -11.97 6.3157 -71.942 -33.685 -48.252 3.8106 -66.663 -43.456 -0 0 -0 -26.008 -18.892 -59.351 104.15 -63.486 100.04 10.631 -50.635 5.9903 -2.0384 6.1111 -19.751 0.77128 4.8412 -19.775 0.22647 1.9728 -11.408 13.186 -4.0155 22.409 4.3136 13.311 -4.4025 -0 0 -0 0 0 -1.0672e-07 -0 0 -0 0.22647 1.9728 -11.408 11.143 2.1378 -2.9254 -11.468 -10.353 19.015 -0 0 -0 0 0 -2.001e-07 -0 0 -0 
604.1 95.124 504.11 -0 0 -0 -0.57769 1.7564 -9.1475 4.0344 -1.7785 -0.032769 4.0344 -1.7785 -0.032767 3.3888 -1.4939 -0.035944 -0 0 -0 -5.1178 -13.781 6.816 -71.811 -35.759 -46.389 2.9941 -63.048 -43.301 -0 0 -0 -27.401 -19.096 -59.287 109.78 -61.709 107.98 6.2687 -53.827 1.5877 -1.9938 7.1736 -18.791 1.4053 5.6819 -18.88 -0.57769 1.7564 -9.1475 14.937 -4.5148 20.675 3.0919 15.613 0.14272 -0 0 -0 -0 0 3.2017e-07 -0 0 -0 -0.57769 1.7564 -9.1475 11.138 2.5155 -2.6881 -11.555 -10.146 18.162 -0 0 -0 -0 0 1.6008e-07 -0 0 -0 
604.72 95.075 504.47 -0 0 -0 -1.1011 1.5748 -6.8291 4.4525 -2.1658 -0.046509 4.4525 -2.1658 -0.046508 3.7399 -1.8191 -0.050382 -0 0 -0 -6.398 -14.605 6.7266 -70.758 -36.223 -44.398 2.4493 -58.235 -43.057 -0 0 -0 -27.517 -18.223 -58.039 115.99 -61.796 114.86 5.3011 -48.709 -2.9877 -1.8598 8.2069 -17.987 1.8948 6.3903 -18.097 -1.1011 1.5748 -6.8291 15.718 -4.332 20.666 2.1515 17.179 2.4612 -0 0 -0 0 0 -8.5377e-07 -0 0 -0 -1.1011 1.5748 -6.8291 10.817 2.7252 -2.9401 -11.552 -9.8542 17.493 -0 0 -0 -0 0 1.2006e-07 -0 0 -0 
605.56 95.017 504.93 -0 0 -0 -1.3199 1.3724 -4.3873 4.6588 -2.4817 -0.072233 4.6588 -2.4817 -0.072234 3.9131 -2.0844 -0.074244 -0 0 -0 -6.7891 -14.16 4.6626 -69.86 -36.355 -43.063 1.4426 -54.897 -43.212 -0 0 -0 -27.263 -16.675 -57.246 119.97 -62.355 117.87 8.6631 -34.145 -11.591 -1.8917 8.8236 -17.572 2.0423 6.7428 -17.716 -1.3199 1.3724 -4.3873 14.544 -3.8885 22.7 2.842 17.732 1.5658 -0 0 -0 -0 0 7.4705e-07 -0 0 -0 -1.3199 1.3724 -4.3873 10.502 3.0634 -3.5541 -11.817 -9.5425 16.678 -0 0 -0 0 0 -1.7342e-07 -0 0 -0 
606.66 94.969 505.46 -0 0 -0 -1.5382 1.1236 -1.8685 4.8456 -2.6567 0.027077 4.8456 -2.6567 0.027077 4.0697 -2.2319 0.0076312 -0 0 -0 -6.7093 -12.839 0.84792 -69.264 -36.608 -43.106 1.9829 -51.799 -41.705 -0 0 -0 -27.603 -14.786 -57.962 119.49 -62.007 113.84 19.524 -10.356 -18.207 -2.1855 9.0214 -17.821 1.8948 6.7908 -17.899 -1.5382 1.1236 -1.8685 12.259 -4.2203 24.102 4.673 17.607 0.16655 -0 0 -0 -7.1875e-08 -3.4244 -2.4045e-06 -0 0 -0 -1.5382 1.1236 -1.8685 10.067 3.3818 -4.2642 -12.235 -9.0122 15.653 -0 0 -0 0 0 -3.4685e-07 -0 0 -0 
608.05 94.961 506.03 -0 0 -0 -1.8242 0.77948 0.59922 5.0169 -2.7757 0.22935 5.0169 -2.7757 0.22935 4.2129 -2.3331 0.1763 -0 0 -0 -6.2674 -10.465 -2.9138 -67.85 -35.742 -43.663 3.0477 -50.492 -38.826 -0 0 -0 -28.167 -11.821 -58.236 118.27 -60.325 103.2 35.585 12.164 -18.697 -2.5885 9.1376 -18.578 1.6109 6.799 -18.507 -1.8242 0.77948 0.59922 10.159 -4.5293 22.226 5.7477 16.426 -0.18891 -0 0 -0 4.0381e-08 -6.6297 6.9719e-07 -0 0 -0 -1.8242 0.77948 0.59922 9.5298 3.8987 -4.7679 -12.738 -8.4846 14.252 -0 0 -0 0 0 -1.334e-07 -0 0 -0 
609.73 95.025 506.6 -0 0 -0 -2.1919 0.37567 2.9615 5.1865 -2.9662 0.51396 5.1865 -2.9662 0.51396 4.3542 -2.4949 0.41363 -0 0 -0 -5.4977 -7.0041 -6.0936 -65.607 -33.84 -43.952 4.8468 -49.671 -35.188 -0 0 -0 -27.515 -6.8791 -54.133 124.69 -60.194 93.674 42.212 35.244 -26.808 -2.9666 9.5476 -19.712 1.3373 7.0345 -19.426 -2.1919 0.37567 2.9615 9.7604 -4.5971 18.326 4.8812 15.582 -1.5059 -0 0 -0 -5.6161e-08 -10.331 -6.2123e-07 -0 0 -0 -2.1919 0.37567 2.9615 9.0354 4.4888 -5.4711 -13.324 -8.0068 13.172 -0 0 -0 0 0 -2.001e-08 -0 0 -0 
611.63 95.177 507.1 -0 0 -0 -2.6236 -0.037828 4.8945 5.0741 -3.2954 0.78853 5.0741 -3.2954 0.78853 4.2584 -2.7731 0.64265 -0 0 -0 -4.0825 -2.3907 -7.9543 -61.243 -30.481 -43.041 8.5445 -47.907 -29.84 -0 0 -0 -24.523 -0.72319 -45.461 136.86 -62.024 95.821 50.962 48.295 -30.104 -2.8582 10.616 -21.029 1.3033 7.8137 -20.522 -2.6236 -0.037828 4.8945 10.121 -4.5553 17.89 3.4729 14.958 -4.8156 -0 0 -0 -5.9188e-07 -10.022 -1.8631e-06 -0 0 -0 -2.6236 -0.037828 4.8945 8.3312 5.1615 -5.8848 -13.762 -7.3836 12.321 -0 0 -0 0 0 -3.6686e-08 -0 0 -0 
613.66 95.394 507.43 -0 0 -0 -2.7103 -0.6238 6.7089 4.6464 -3.2989 1.1686 4.6464 -3.2989 1.1686 3.8977 -2.7776 0.96352 -0 0 -0 -2.7479 1.9377 -8.9495 -53.656 -26.262 -40.915 12.783 -43.681 -22.917 -0 0 -0 -21.032 3.9264 -39.793 137.47 -61.375 94.556 51.415 46.33 -33.593 -2.3266 11.564 -23.175 1.3963 8.7483 -22.316 -2.7103 -0.6238 6.7089 8.8357 -3.298 19.595 2.5117 12.981 -7.7081 -0 0 -0 -8.7206e-07 -9.2296 -1.921e-07 -0 0 -0 -2.7103 -0.6238 6.7089 6.9329 6.089 -5.9416 -13.791 -6.3692 10.707 -0 0 -0 0 0 -1.6008e-07 -0 0 -0 
615.74 95.634 507.54 -0 0 -0 -2.3238 -1.738 8.8783 4.0734 -2.9855 1.5014 4.0734 -2.9855 1.5014 3.4159 -2.5151 1.2468 -0 0 -0 -2.6427 5.768 -8.9995 -41.856 -21.167 -36.24 16.044 -37.024 -14.548 -0 0 -0 -17.703 6.939 -39.034 125.64 -56.821 79.084 44.142 44.959 -28.2 -1.6461 12.47 -26.135 1.5112 9.9177 -24.944 -2.3238 -1.738 8.8783 6.9292 -0.94318 17.799 0.84011 10.362 -7.2657 -0 0 -0 1.8916e-07 -8.1483 2.6557e-06 -0 0 -0 -2.3238 -1.738 8.8783 5.3086 7.3834 -6.1852 -13.648 -5.021 8.3456 -0 0 -0 0 0 -1.2006e-07 -0 0 -0 
617.79 95.849 507.45 -0 0 -0 -2.0049 -3.1005 10.439 3.7123 -2.4725 1.9567 3.7123 -2.4725 1.9567 3.1123 -2.0855 1.6327 -0 0 -0 -4.4405 8.1743 -8.6028 -25.374 -15.202 -27.554 16.685 -26.955 -3.1732 -0 0 -0 -14.513 9.1712 -38.866 115.48 -51.51 66.843 40.815 47.848 -22.737 -1.1566 13.314 -29.4 1.5821 11.191 -27.78 -2.0049 -3.1005 10.439 6.1449 1.0745 15.085 -0.97091 8.4066 -5.6371 -0 0 -0 1.7477e-07 -6.9204 1.5642e-06 -0 0 -0 -2.0049 -3.1005 10.439 3.5226 8.5911 -5.587 -13.078 -3.5416 6.4178 -0 0 -0 -0 0 4.0021e-07 -0 0 -0 
619.76 96.016 507.24 -0 0 -0 -2.4016 -4.2129 11.491 3.4663 -2.0761 2.2694 3.4663 -2.0761 2.2694 2.9059 -1.7532 1.8977 -0 0 -0 -6.105 8.9811 -6.9579 -6.6547 -6.4629 -15.212 11.972 -19.223 5.4528 -0 0 -0 -11.223 10.791 -37.659 108.33 -47.001 59.694 37.18 52.292 -15.887 -0.66836 14.201 -32.071 1.7662 12.418 -30.15 -2.4016 -4.2129 11.491 6.0801 2.7364 13.966 -2.4619 6.7949 -5.0924 -0 0 -0 7.9794e-08 -6.0382 1.5129e-06 -0 0 -0 -2.4016 -4.2129 11.491 2.0707 9.0874 -5.0509 -11.722 -2.2747 6.3576 -0 0 -0 0 0 -1.334e-07 -0 0 -0 
621.63 96.124 507.06 -0 0 -0 -2.8972 -4.8555 12.801 3.0935 -1.9859 2.0352 3.0935 -1.9859 2.0352 2.5936 -1.6756 1.7023 -0 0 -0 -4.2912 9.508 -2.0068 7.3769 3.9795 -1.0043 -1.6098 -17.486 2.5664 -0 0 -0 -9.0429 11.634 -36.296 102.75 -42.706 55.079 31.56 54.206 -7.7975 -0.25523 15.181 -33.395 1.882 13.491 -31.652 -2.8972 -4.8555 12.801 5.5607 4.2894 12.409 -3.2121 4.9443 -4.6439 -0 0 -0 3.828e-08 -5.4802 7.9982e-07 -0 0 -0 -2.8972 -4.8555 12.801 0.29021 8.851 -5.0457 -9.0067 -1.0937 8.7022 -0 0 -0 -0 0 3.7353e-07 -0 0 -0 
623.34 96.173 506.96 -0 0 -0 -3.0648 -5.0951 14.097 3.054 -2.166 1.7428 3.054 -2.166 1.7428 2.5608 -1.8258 1.4561 -0 0 -0 -0.11525 13.511 3.2595 10.412 7.1921 12.758 -8.6519 -13.509 -9.7076 -0 0 -0 -9.3587 12.387 -35.727 99.01 -38.692 51.681 25.186 53.399 -0.48444 -0.63909 16.118 -34.063 1.5103 14.271 -32.583 -3.0648 -5.0951 14.097 4.526 5.9106 10.535 -3.3948 2.6782 -4.4469 -0 0 -0 -2.7762e-08 -4.9258 -6.4545e-07 -0 0 -0 -3.0648 -5.0951 14.097 -0.57193 8.5156 -5.3814 -6.6101 -0.1781 14.326 -0 0 -0 -0 0 2.668e-07 -0 0 -0 
624.85 96.166 506.96 -0 0 -0 -3.5327 -4.8542 15.354 3.6074 -2.4286 1.8714 3.6074 -2.4286 1.8714 3.0246 -2.048 1.5616 -0 0 -0 3.1123 17.21 -0.30171 6.3772 5.4777 20.168 -12.244 -11.516 -11.963 -0 0 -0 -11.139 13.252 -36.742 97.213 -35.828 50.867 19.562 50.317 3.985 -1.6575 16.576 -34.934 0.92419 14.478 -33.384 -3.5327 -4.8542 15.354 4.1495 7.29 8.7166 -3.5248 -0.071288 -4.8359 -0 0 -0 -6.4735e-08 -4.057 -1.8277e-06 -0 0 -0 -3.5327 -4.8542 15.354 -0.13711 8.3162 -6.417 -4.7352 0.29732 21.225 -0 0 -0 0 0 -1.8676e-07 -0 0 -0 
626.15 96.111 507.05 -0 0 -0 -4.0874 -4.2432 16.587 4.2087 -2.9611 2.2443 4.2087 -2.9611 2.2443 3.527 -2.4986 1.8703 -0 0 -0 5.0164 19.669 -5.9646 5.8953 3.6894 14.413 -15.038 -11.729 -6.6818 -0 0 -0 -12.283 14.685 -38.535 96.064 -34.491 52.251 16.371 47.234 5.262 -2.5301 16.902 -35.604 0.4682 14.315 -33.792 -4.0874 -4.2432 16.587 4.2291 8.0139 7.393 -3.883 -2.7942 -5.6412 -0 0 -0 2.231e-08 -2.836 9.0129e-07 -0 0 -0 -4.0874 -4.2432 16.587 -0.033812 6.8031 -6.3238 -2.3364 1.9493 26.197 -0 0 -0 0 0 -7.4705e-07 -0 0 -0 
